<svg xmlns="http://www.w3.org/2000/svg" width="375" viewBox="0 0 375 375" height="375" version="1.0"><path fill="#FFF" d="M 37.5 37.5 L 120 37.5 L 120 120 L 37.5 120 L 37.5 37.5"/><path fill="#FFF" d="M 146.21875 37.5 L 228.71875 37.5 L 228.71875 120 L 146.21875 120 L 146.21875 37.5"/><path fill="#FFF" d="M 254.933594 37.5 L 337.433594 37.5 L 337.433594 120 L 254.933594 120 L 254.933594 37.5"/><path fill="#FFF" d="M 37.5 146.21875 L 120 146.21875 L 120 228.71875 L 37.5 228.71875 L 37.5 146.21875"/><path fill="#FFF" d="M 146.21875 146.21875 L 228.71875 146.21875 L 228.71875 228.71875 L 146.21875 228.71875 L 146.21875 146.21875"/><path fill="#FFF" d="M 254.933594 146.21875 L 337.433594 146.21875 L 337.433594 228.71875 L 254.933594 228.71875 L 254.933594 146.21875"/><path fill="#FFF" d="M 37.5 254.933594 L 120 254.933594 L 120 337.433594 L 37.5 337.433594 L 37.5 254.933594"/><path fill="#FFF" d="M 146.21875 254.933594 L 228.71875 254.933594 L 228.71875 337.433594 L 146.21875 337.433594 L 146.21875 254.933594"/><path fill="#FFF" d="M 254.933594 254.933594 L 337.433594 254.933594 L 337.433594 337.433594 L 254.933594 337.433594 L 254.933594 254.933594"/></svg>