<?xml version="1.0" encoding="UTF-8"?><svg xmlns="http://www.w3.org/2000/svg" xmlns:xlink="http://www.w3.org/1999/xlink" contentScriptType="text/ecmascript" width="375" zoomAndPan="magnify" contentStyleType="text/css" viewBox="0 0 375 374.999991" height="374.999991" preserveAspectRatio="xMidYMid meet" version="1.0"><defs><clipPath id="clip-0"><path d="M 375.011719 187.5 C 375.011719 291.0625 291.0625 375.011719 187.5 375.011719 C 83.941406 375.011719 -0.0117188 291.0625 -0.0117188 187.5 C -0.0117188 83.9375 83.941406 -0.0117188 187.5 -0.0117188 C 291.0625 -0.0117188 375.011719 83.9375 375.011719 187.5 " clip-rule="nonzero"/></clipPath><clipPath id="clip-1"><path d="M 258 293 L 286 293 L 286 375 L 258 375 Z M 258 293 " clip-rule="nonzero"/></clipPath><clipPath id="clip-2"><path d="M 375.011719 187.5 C 375.011719 291.0625 291.0625 375.011719 187.5 375.011719 C 83.941406 375.011719 -0.0117188 291.0625 -0.0117188 187.5 C -0.0117188 83.9375 83.941406 -0.0117188 187.5 -0.0117188 C 291.0625 -0.0117188 375.011719 83.9375 375.011719 187.5 " clip-rule="nonzero"/></clipPath><clipPath id="clip-3"><path d="M 258 313 L 263 313 L 263 316.644531 L 258 316.644531 Z M 258 313 " clip-rule="nonzero"/></clipPath><clipPath id="clip-4"><path d="M 375.011719 187.5 C 375.011719 291.0625 291.0625 375.011719 187.5 375.011719 C 83.941406 375.011719 -0.0117188 291.0625 -0.0117188 187.5 C -0.0117188 83.9375 83.941406 -0.0117188 187.5 -0.0117188 C 291.0625 -0.0117188 375.011719 83.9375 375.011719 187.5 " clip-rule="nonzero"/></clipPath><clipPath id="clip-5"><path d="M 258 306 L 285 306 L 285 361 L 258 361 Z M 258 306 " clip-rule="nonzero"/></clipPath><clipPath id="clip-6"><path d="M 375.011719 187.5 C 375.011719 291.0625 291.0625 375.011719 187.5 375.011719 C 83.941406 375.011719 -0.0117188 291.0625 -0.0117188 187.5 C -0.0117188 83.9375 83.941406 -0.0117188 187.5 -0.0117188 C 291.0625 -0.0117188 375.011719 83.9375 375.011719 187.5 " clip-rule="nonzero"/></clipPath><clipPath id="clip-7"><path d="M 247 246 L 286 246 L 286 375 L 247 375 Z M 247 246 " clip-rule="nonzero"/></clipPath><clipPath id="clip-8"><path d="M 375.011719 187.5 C 375.011719 291.0625 291.0625 375.011719 187.5 375.011719 C 83.941406 375.011719 -0.0117188 291.0625 -0.0117188 187.5 C -0.0117188 83.9375 83.941406 -0.0117188 187.5 -0.0117188 C 291.0625 -0.0117188 375.011719 83.9375 375.011719 187.5 " clip-rule="nonzero"/></clipPath><clipPath id="clip-9"><path d="M 247 264.289062 L 270 264.289062 L 270 375 L 247 375 Z M 247 264.289062 " clip-rule="nonzero"/></clipPath><clipPath id="clip-10"><path d="M 375.011719 187.5 C 375.011719 291.0625 291.0625 375.011719 187.5 375.011719 C 83.941406 375.011719 -0.0117188 291.0625 -0.0117188 187.5 C -0.0117188 83.9375 83.941406 -0.0117188 187.5 -0.0117188 C 291.0625 -0.0117188 375.011719 83.9375 375.011719 187.5 " clip-rule="nonzero"/></clipPath><clipPath id="clip-11"><path d="M 89 293 L 117 293 L 117 375 L 89 375 Z M 89 293 " clip-rule="nonzero"/></clipPath><clipPath id="clip-12"><path d="M 375.011719 187.5 C 375.011719 291.0625 291.0625 375.011719 187.5 375.011719 C 83.941406 375.011719 -0.0117188 291.0625 -0.0117188 187.5 C -0.0117188 83.9375 83.941406 -0.0117188 187.5 -0.0117188 C 291.0625 -0.0117188 375.011719 83.9375 375.011719 187.5 " clip-rule="nonzero"/></clipPath><clipPath id="clip-13"><path d="M 112 313 L 117 313 L 117 316.644531 L 112 316.644531 Z M 112 313 " clip-rule="nonzero"/></clipPath><clipPath id="clip-14"><path d="M 375.011719 187.5 C 375.011719 291.0625 291.0625 375.011719 187.5 375.011719 C 83.941406 375.011719 -0.0117188 291.0625 -0.0117188 187.5 C -0.0117188 83.9375 83.941406 -0.0117188 187.5 -0.0117188 C 291.0625 -0.0117188 375.011719 83.9375 375.011719 187.5 " clip-rule="nonzero"/></clipPath><clipPath id="clip-15"><path d="M 89.769531 306 L 117 306 L 117 361 L 89.769531 361 Z M 89.769531 306 " clip-rule="nonzero"/></clipPath><clipPath id="clip-16"><path d="M 375.011719 187.5 C 375.011719 291.0625 291.0625 375.011719 187.5 375.011719 C 83.941406 375.011719 -0.0117188 291.0625 -0.0117188 187.5 C -0.0117188 83.9375 83.941406 -0.0117188 187.5 -0.0117188 C 291.0625 -0.0117188 375.011719 83.9375 375.011719 187.5 " clip-rule="nonzero"/></clipPath><clipPath id="clip-17"><path d="M 89 246 L 127.945312 246 L 127.945312 375 L 89 375 Z M 89 246 " clip-rule="nonzero"/></clipPath><clipPath id="clip-18"><path d="M 375.011719 187.5 C 375.011719 291.0625 291.0625 375.011719 187.5 375.011719 C 83.941406 375.011719 -0.0117188 291.0625 -0.0117188 187.5 C -0.0117188 83.9375 83.941406 -0.0117188 187.5 -0.0117188 C 291.0625 -0.0117188 375.011719 83.9375 375.011719 187.5 " clip-rule="nonzero"/></clipPath><clipPath id="clip-19"><path d="M 105.039062 264.289062 L 127.945312 264.289062 L 127.945312 375 L 105.039062 375 Z M 105.039062 264.289062 " clip-rule="nonzero"/></clipPath><clipPath id="clip-20"><path d="M 375.011719 187.5 C 375.011719 291.0625 291.0625 375.011719 187.5 375.011719 C 83.941406 375.011719 -0.0117188 291.0625 -0.0117188 187.5 C -0.0117188 83.9375 83.941406 -0.0117188 187.5 -0.0117188 C 291.0625 -0.0117188 375.011719 83.9375 375.011719 187.5 " clip-rule="nonzero"/></clipPath><clipPath id="clip-21"><path d="M 112.675781 228.292969 L 262 228.292969 L 262 375 L 112.675781 375 Z M 112.675781 228.292969 " clip-rule="nonzero"/></clipPath><clipPath id="clip-22"><path d="M 375.011719 187.5 C 375.011719 291.0625 291.0625 375.011719 187.5 375.011719 C 83.941406 375.011719 -0.0117188 291.0625 -0.0117188 187.5 C -0.0117188 83.9375 83.941406 -0.0117188 187.5 -0.0117188 C 291.0625 -0.0117188 375.011719 83.9375 375.011719 187.5 " clip-rule="nonzero"/></clipPath><clipPath id="clip-23"><path d="M 145 229.386719 L 189 229.386719 L 189 348.277344 L 145 348.277344 Z M 145 229.386719 " clip-rule="nonzero"/></clipPath><clipPath id="clip-24"><path d="M 375.011719 187.5 C 375.011719 291.0625 291.0625 375.011719 187.5 375.011719 C 83.941406 375.011719 -0.0117188 291.0625 -0.0117188 187.5 C -0.0117188 83.9375 83.941406 -0.0117188 187.5 -0.0117188 C 291.0625 -0.0117188 375.011719 83.9375 375.011719 187.5 " clip-rule="nonzero"/></clipPath><clipPath id="clip-25"><path d="M 188 230.476562 L 232 230.476562 L 232 349.367188 L 188 349.367188 Z M 188 230.476562 " clip-rule="nonzero"/></clipPath><clipPath id="clip-26"><path d="M 375.011719 187.5 C 375.011719 291.0625 291.0625 375.011719 187.5 375.011719 C 83.941406 375.011719 -0.0117188 291.0625 -0.0117188 187.5 C -0.0117188 83.9375 83.941406 -0.0117188 187.5 -0.0117188 C 291.0625 -0.0117188 375.011719 83.9375 375.011719 187.5 " clip-rule="nonzero"/></clipPath><clipPath id="clip-27"><path d="M 163 240.292969 L 216 240.292969 L 216 349 L 163 349 Z M 163 240.292969 " clip-rule="nonzero"/></clipPath><clipPath id="clip-28"><path d="M 375.011719 187.5 C 375.011719 291.0625 291.0625 375.011719 187.5 375.011719 C 83.941406 375.011719 -0.0117188 291.0625 -0.0117188 187.5 C -0.0117188 83.9375 83.941406 -0.0117188 187.5 -0.0117188 C 291.0625 -0.0117188 375.011719 83.9375 375.011719 187.5 " clip-rule="nonzero"/></clipPath><clipPath id="clip-29"><path d="M 177.027344 242.472656 L 202 242.472656 L 202 349 L 177.027344 349 Z M 177.027344 242.472656 " clip-rule="nonzero"/></clipPath><clipPath id="clip-30"><path d="M 375.011719 187.5 C 375.011719 291.0625 291.0625 375.011719 187.5 375.011719 C 83.941406 375.011719 -0.0117188 291.0625 -0.0117188 187.5 C -0.0117188 83.9375 83.941406 -0.0117188 187.5 -0.0117188 C 291.0625 -0.0117188 375.011719 83.9375 375.011719 187.5 " clip-rule="nonzero"/></clipPath><clipPath id="clip-31"><path d="M 180.300781 244 L 198.84375 244 L 198.84375 257 L 180.300781 257 Z M 180.300781 244 " clip-rule="nonzero"/></clipPath><clipPath id="clip-32"><path d="M 375.011719 187.5 C 375.011719 291.0625 291.0625 375.011719 187.5 375.011719 C 83.941406 375.011719 -0.0117188 291.0625 -0.0117188 187.5 C -0.0117188 83.9375 83.941406 -0.0117188 187.5 -0.0117188 C 291.0625 -0.0117188 375.011719 83.9375 375.011719 187.5 " clip-rule="nonzero"/></clipPath><clipPath id="clip-33"><path d="M 161.757812 196.664062 L 214 196.664062 L 214 244 L 161.757812 244 Z M 161.757812 196.664062 " clip-rule="nonzero"/></clipPath><clipPath id="clip-34"><path d="M 375.011719 187.5 C 375.011719 291.0625 291.0625 375.011719 187.5 375.011719 C 83.941406 375.011719 -0.0117188 291.0625 -0.0117188 187.5 C -0.0117188 83.9375 83.941406 -0.0117188 187.5 -0.0117188 C 291.0625 -0.0117188 375.011719 83.9375 375.011719 187.5 " clip-rule="nonzero"/></clipPath><clipPath id="clip-35"><path d="M 165.03125 207 L 211.933594 207 L 211.933594 226 L 165.03125 226 Z M 165.03125 207 " clip-rule="nonzero"/></clipPath><clipPath id="clip-36"><path d="M 375.011719 187.5 C 375.011719 291.0625 291.0625 375.011719 187.5 375.011719 C 83.941406 375.011719 -0.0117188 291.0625 -0.0117188 187.5 C -0.0117188 83.9375 83.941406 -0.0117188 187.5 -0.0117188 C 291.0625 -0.0117188 375.011719 83.9375 375.011719 187.5 " clip-rule="nonzero"/></clipPath><clipPath id="clip-37"><path d="M 165.03125 207 L 211.933594 207 L 211.933594 228 L 165.03125 228 Z M 165.03125 207 " clip-rule="nonzero"/></clipPath><clipPath id="clip-38"><path d="M 375.011719 187.5 C 375.011719 291.0625 291.0625 375.011719 187.5 375.011719 C 83.941406 375.011719 -0.0117188 291.0625 -0.0117188 187.5 C -0.0117188 83.9375 83.941406 -0.0117188 187.5 -0.0117188 C 291.0625 -0.0117188 375.011719 83.9375 375.011719 187.5 " clip-rule="nonzero"/></clipPath><clipPath id="clip-39"><path d="M 231.566406 130.125 L 252 130.125 L 252 162.847656 L 231.566406 162.847656 Z M 231.566406 130.125 " clip-rule="nonzero"/></clipPath><clipPath id="clip-40"><path d="M 375.011719 187.5 C 375.011719 291.0625 291.0625 375.011719 187.5 375.011719 C 83.941406 375.011719 -0.0117188 291.0625 -0.0117188 187.5 C -0.0117188 83.9375 83.941406 -0.0117188 187.5 -0.0117188 C 291.0625 -0.0117188 375.011719 83.9375 375.011719 187.5 " clip-rule="nonzero"/></clipPath><clipPath id="clip-41"><path d="M 238.109375 136.671875 L 249 136.671875 L 249 158 L 238.109375 158 Z M 238.109375 136.671875 " clip-rule="nonzero"/></clipPath><clipPath id="clip-42"><path d="M 375.011719 187.5 C 375.011719 291.0625 291.0625 375.011719 187.5 375.011719 C 83.941406 375.011719 -0.0117188 291.0625 -0.0117188 187.5 C -0.0117188 83.9375 83.941406 -0.0117188 187.5 -0.0117188 C 291.0625 -0.0117188 375.011719 83.9375 375.011719 187.5 " clip-rule="nonzero"/></clipPath><clipPath id="clip-43"><path d="M 237.019531 136 L 249 136 L 249 158 L 237.019531 158 Z M 237.019531 136 " clip-rule="nonzero"/></clipPath><clipPath id="clip-44"><path d="M 375.011719 187.5 C 375.011719 291.0625 291.0625 375.011719 187.5 375.011719 C 83.941406 375.011719 -0.0117188 291.0625 -0.0117188 187.5 C -0.0117188 83.9375 83.941406 -0.0117188 187.5 -0.0117188 C 291.0625 -0.0117188 375.011719 83.9375 375.011719 187.5 " clip-rule="nonzero"/></clipPath><clipPath id="clip-45"><path d="M 238.109375 138 L 245.746094 138 L 245.746094 147.578125 L 238.109375 147.578125 Z M 238.109375 138 " clip-rule="nonzero"/></clipPath><clipPath id="clip-46"><path d="M 375.011719 187.5 C 375.011719 291.0625 291.0625 375.011719 187.5 375.011719 C 83.941406 375.011719 -0.0117188 291.0625 -0.0117188 187.5 C -0.0117188 83.9375 83.941406 -0.0117188 187.5 -0.0117188 C 291.0625 -0.0117188 375.011719 83.9375 375.011719 187.5 " clip-rule="nonzero"/></clipPath><clipPath id="clip-47"><path d="M 123.582031 130.125 L 144 130.125 L 144 162.847656 L 123.582031 162.847656 Z M 123.582031 130.125 " clip-rule="nonzero"/></clipPath><clipPath id="clip-48"><path d="M 375.011719 187.5 C 375.011719 291.0625 291.0625 375.011719 187.5 375.011719 C 83.941406 375.011719 -0.0117188 291.0625 -0.0117188 187.5 C -0.0117188 83.9375 83.941406 -0.0117188 187.5 -0.0117188 C 291.0625 -0.0117188 375.011719 83.9375 375.011719 187.5 " clip-rule="nonzero"/></clipPath><clipPath id="clip-49"><path d="M 127 137 L 137 137 L 137 157.394531 L 127 157.394531 Z M 127 137 " clip-rule="nonzero"/></clipPath><clipPath id="clip-50"><path d="M 375.011719 187.5 C 375.011719 291.0625 291.0625 375.011719 187.5 375.011719 C 83.941406 375.011719 -0.0117188 291.0625 -0.0117188 187.5 C -0.0117188 83.9375 83.941406 -0.0117188 187.5 -0.0117188 C 291.0625 -0.0117188 375.011719 83.9375 375.011719 187.5 " clip-rule="nonzero"/></clipPath><clipPath id="clip-51"><path d="M 127 136 L 138.851562 136 L 138.851562 158 L 127 158 Z M 127 136 " clip-rule="nonzero"/></clipPath><clipPath id="clip-52"><path d="M 375.011719 187.5 C 375.011719 291.0625 291.0625 375.011719 187.5 375.011719 C 83.941406 375.011719 -0.0117188 291.0625 -0.0117188 187.5 C -0.0117188 83.9375 83.941406 -0.0117188 187.5 -0.0117188 C 291.0625 -0.0117188 375.011719 83.9375 375.011719 187.5 " clip-rule="nonzero"/></clipPath><clipPath id="clip-53"><path d="M 129.035156 138 L 137 138 L 137 147.578125 L 129.035156 147.578125 Z M 129.035156 138 " clip-rule="nonzero"/></clipPath><clipPath id="clip-54"><path d="M 375.011719 187.5 C 375.011719 291.0625 291.0625 375.011719 187.5 375.011719 C 83.941406 375.011719 -0.0117188 291.0625 -0.0117188 187.5 C -0.0117188 83.9375 83.941406 -0.0117188 187.5 -0.0117188 C 291.0625 -0.0117188 375.011719 83.9375 375.011719 187.5 " clip-rule="nonzero"/></clipPath><clipPath id="clip-55"><path d="M 136.671875 80 L 239 80 L 239 216 L 136.671875 216 Z M 136.671875 80 " clip-rule="nonzero"/></clipPath><clipPath id="clip-56"><path d="M 375.011719 187.5 C 375.011719 291.0625 291.0625 375.011719 187.5 375.011719 C 83.941406 375.011719 -0.0117188 291.0625 -0.0117188 187.5 C -0.0117188 83.9375 83.941406 -0.0117188 187.5 -0.0117188 C 291.0625 -0.0117188 375.011719 83.9375 375.011719 187.5 " clip-rule="nonzero"/></clipPath><clipPath id="clip-57"><path d="M 169.394531 180 L 205 180 L 205 187 L 169.394531 187 Z M 169.394531 180 " clip-rule="nonzero"/></clipPath><clipPath id="clip-58"><path d="M 375.011719 187.5 C 375.011719 291.0625 291.0625 375.011719 187.5 375.011719 C 83.941406 375.011719 -0.0117188 291.0625 -0.0117188 187.5 C -0.0117188 83.9375 83.941406 -0.0117188 187.5 -0.0117188 C 291.0625 -0.0117188 375.011719 83.9375 375.011719 187.5 " clip-rule="nonzero"/></clipPath><clipPath id="clip-59"><path d="M 161 81.042969 L 238 81.042969 L 238 130 L 161 130 Z M 161 81.042969 " clip-rule="nonzero"/></clipPath><clipPath id="clip-60"><path d="M 375.011719 187.5 C 375.011719 291.0625 291.0625 375.011719 187.5 375.011719 C 83.941406 375.011719 -0.0117188 291.0625 -0.0117188 187.5 C -0.0117188 83.9375 83.941406 -0.0117188 187.5 -0.0117188 C 291.0625 -0.0117188 375.011719 83.9375 375.011719 187.5 " clip-rule="nonzero"/></clipPath><clipPath id="clip-61"><path d="M 157.394531 81.042969 L 238 81.042969 L 238 132.308594 L 157.394531 132.308594 Z M 157.394531 81.042969 " clip-rule="nonzero"/></clipPath><clipPath id="clip-62"><path d="M 375.011719 187.5 C 375.011719 291.0625 291.0625 375.011719 187.5 375.011719 C 83.941406 375.011719 -0.0117188 291.0625 -0.0117188 187.5 C -0.0117188 83.9375 83.941406 -0.0117188 187.5 -0.0117188 C 291.0625 -0.0117188 375.011719 83.9375 375.011719 187.5 " clip-rule="nonzero"/></clipPath><clipPath id="clip-63"><path d="M 187 215.203125 L 189 215.203125 L 189 216 L 187 216 Z M 187 215.203125 " clip-rule="nonzero"/></clipPath><clipPath id="clip-64"><path d="M 375.011719 187.5 C 375.011719 291.0625 291.0625 375.011719 187.5 375.011719 C 83.941406 375.011719 -0.0117188 291.0625 -0.0117188 187.5 C -0.0117188 83.9375 83.941406 -0.0117188 187.5 -0.0117188 C 291.0625 -0.0117188 375.011719 83.9375 375.011719 187.5 " clip-rule="nonzero"/></clipPath><clipPath id="clip-65"><path d="M 136.671875 92 L 225 92 L 225 216 L 136.671875 216 Z M 136.671875 92 " clip-rule="nonzero"/></clipPath><clipPath id="clip-66"><path d="M 375.011719 187.5 C 375.011719 291.0625 291.0625 375.011719 187.5 375.011719 C 83.941406 375.011719 -0.0117188 291.0625 -0.0117188 187.5 C -0.0117188 83.9375 83.941406 -0.0117188 187.5 -0.0117188 C 291.0625 -0.0117188 375.011719 83.9375 375.011719 187.5 " clip-rule="nonzero"/></clipPath><clipPath id="clip-67"><path d="M 149 119.21875 L 178 119.21875 L 178 127.945312 L 149 127.945312 Z M 149 119.21875 " clip-rule="nonzero"/></clipPath><clipPath id="clip-68"><path d="M 375.011719 187.5 C 375.011719 291.0625 291.0625 375.011719 187.5 375.011719 C 83.941406 375.011719 -0.0117188 291.0625 -0.0117188 187.5 C -0.0117188 83.9375 83.941406 -0.0117188 187.5 -0.0117188 C 291.0625 -0.0117188 375.011719 83.9375 375.011719 187.5 " clip-rule="nonzero"/></clipPath><clipPath id="clip-69"><path d="M 196 119.21875 L 225 119.21875 L 225 127.945312 L 196 127.945312 Z M 196 119.21875 " clip-rule="nonzero"/></clipPath><clipPath id="clip-70"><path d="M 375.011719 187.5 C 375.011719 291.0625 291.0625 375.011719 187.5 375.011719 C 83.941406 375.011719 -0.0117188 291.0625 -0.0117188 187.5 C -0.0117188 83.9375 83.941406 -0.0117188 187.5 -0.0117188 C 291.0625 -0.0117188 375.011719 83.9375 375.011719 187.5 " clip-rule="nonzero"/></clipPath><clipPath id="clip-71"><path d="M 178.121094 159.578125 L 197 159.578125 L 197 168 L 178.121094 168 Z M 178.121094 159.578125 " clip-rule="nonzero"/></clipPath><clipPath id="clip-72"><path d="M 375.011719 187.5 C 375.011719 291.0625 291.0625 375.011719 187.5 375.011719 C 83.941406 375.011719 -0.0117188 291.0625 -0.0117188 187.5 C -0.0117188 83.9375 83.941406 -0.0117188 187.5 -0.0117188 C 291.0625 -0.0117188 375.011719 83.9375 375.011719 187.5 " clip-rule="nonzero"/></clipPath><clipPath id="clip-73"><path d="M 181.390625 190.117188 L 194 190.117188 L 194 195 L 181.390625 195 Z M 181.390625 190.117188 " clip-rule="nonzero"/></clipPath><clipPath id="clip-74"><path d="M 375.011719 187.5 C 375.011719 291.0625 291.0625 375.011719 187.5 375.011719 C 83.941406 375.011719 -0.0117188 291.0625 -0.0117188 187.5 C -0.0117188 83.9375 83.941406 -0.0117188 187.5 -0.0117188 C 291.0625 -0.0117188 375.011719 83.9375 375.011719 187.5 " clip-rule="nonzero"/></clipPath><clipPath id="clip-75"><path d="M 178.121094 163 L 197 163 L 197 171.574219 L 178.121094 171.574219 Z M 178.121094 163 " clip-rule="nonzero"/></clipPath><clipPath id="clip-76"><path d="M 375.011719 187.5 C 375.011719 291.0625 291.0625 375.011719 187.5 375.011719 C 83.941406 375.011719 -0.0117188 291.0625 -0.0117188 187.5 C -0.0117188 83.9375 83.941406 -0.0117188 187.5 -0.0117188 C 291.0625 -0.0117188 375.011719 83.9375 375.011719 187.5 " clip-rule="nonzero"/></clipPath><clipPath id="clip-77"><path d="M 165.03125 138 L 174.847656 138 L 174.847656 155 L 165.03125 155 Z M 165.03125 138 " clip-rule="nonzero"/></clipPath><clipPath id="clip-78"><path d="M 375.011719 187.5 C 375.011719 291.0625 291.0625 375.011719 187.5 375.011719 C 83.941406 375.011719 -0.0117188 291.0625 -0.0117188 187.5 C -0.0117188 83.9375 83.941406 -0.0117188 187.5 -0.0117188 C 291.0625 -0.0117188 375.011719 83.9375 375.011719 187.5 " clip-rule="nonzero"/></clipPath><clipPath id="clip-79"><path d="M 201.023438 138 L 210.84375 138 L 210.84375 155 L 201.023438 155 Z M 201.023438 138 " clip-rule="nonzero"/></clipPath><clipPath id="clip-80"><path d="M 375.011719 187.5 C 375.011719 291.0625 291.0625 375.011719 187.5 375.011719 C 83.941406 375.011719 -0.0117188 291.0625 -0.0117188 187.5 C -0.0117188 83.9375 83.941406 -0.0117188 187.5 -0.0117188 C 291.0625 -0.0117188 375.011719 83.9375 375.011719 187.5 " clip-rule="nonzero"/></clipPath><clipPath id="clip-81"><path d="M 155.214844 225.023438 L 190 225.023438 L 190 256 L 155.214844 256 Z M 155.214844 225.023438 " clip-rule="nonzero"/></clipPath><clipPath id="clip-82"><path d="M 375.011719 187.5 C 375.011719 291.0625 291.0625 375.011719 187.5 375.011719 C 83.941406 375.011719 -0.0117188 291.0625 -0.0117188 187.5 C -0.0117188 83.9375 83.941406 -0.0117188 187.5 -0.0117188 C 291.0625 -0.0117188 375.011719 83.9375 375.011719 187.5 " clip-rule="nonzero"/></clipPath><clipPath id="clip-83"><path d="M 188 225.023438 L 222.839844 225.023438 L 222.839844 256 L 188 256 Z M 188 225.023438 " clip-rule="nonzero"/></clipPath><clipPath id="clip-84"><path d="M 375.011719 187.5 C 375.011719 291.0625 291.0625 375.011719 187.5 375.011719 C 83.941406 375.011719 -0.0117188 291.0625 -0.0117188 187.5 C -0.0117188 83.9375 83.941406 -0.0117188 187.5 -0.0117188 C 291.0625 -0.0117188 375.011719 83.9375 375.011719 187.5 " clip-rule="nonzero"/></clipPath><clipPath id="clip-85"><path d="M 133 45.046875 L 252 45.046875 L 252 149.761719 L 133 149.761719 Z M 133 45.046875 " clip-rule="nonzero"/></clipPath><clipPath id="clip-86"><path d="M 375.011719 187.5 C 375.011719 291.0625 291.0625 375.011719 187.5 375.011719 C 83.941406 375.011719 -0.0117188 291.0625 -0.0117188 187.5 C -0.0117188 83.9375 83.941406 -0.0117188 187.5 -0.0117188 C 291.0625 -0.0117188 375.011719 83.9375 375.011719 187.5 " clip-rule="nonzero"/></clipPath><clipPath id="clip-87"><path d="M 136 72 L 206 72 L 206 88.679688 L 136 88.679688 Z M 136 72 " clip-rule="nonzero"/></clipPath><clipPath id="clip-88"><path d="M 375.011719 187.5 C 375.011719 291.0625 291.0625 375.011719 187.5 375.011719 C 83.941406 375.011719 -0.0117188 291.0625 -0.0117188 187.5 C -0.0117188 83.9375 83.941406 -0.0117188 187.5 -0.0117188 C 291.0625 -0.0117188 375.011719 83.9375 375.011719 187.5 " clip-rule="nonzero"/></clipPath><clipPath id="clip-89"><path d="M 140 132 L 237 132 L 237 165 L 140 165 Z M 140 132 " clip-rule="nonzero"/></clipPath><clipPath id="clip-90"><path d="M 375.011719 187.5 C 375.011719 291.0625 291.0625 375.011719 187.5 375.011719 C 83.941406 375.011719 -0.0117188 291.0625 -0.0117188 187.5 C -0.0117188 83.9375 83.941406 -0.0117188 187.5 -0.0117188 C 291.0625 -0.0117188 375.011719 83.9375 375.011719 187.5 " clip-rule="nonzero"/></clipPath><clipPath id="clip-91"><path d="M 158.484375 95.222656 L 242.472656 95.222656 L 242.472656 145.398438 L 158.484375 145.398438 Z M 158.484375 95.222656 " clip-rule="nonzero"/></clipPath><clipPath id="clip-92"><path d="M 375.011719 187.5 C 375.011719 291.0625 291.0625 375.011719 187.5 375.011719 C 83.941406 375.011719 -0.0117188 291.0625 -0.0117188 187.5 C -0.0117188 83.9375 83.941406 -0.0117188 187.5 -0.0117188 C 291.0625 -0.0117188 375.011719 83.9375 375.011719 187.5 " clip-rule="nonzero"/></clipPath><clipPath id="clip-93"><path d="M 133 95.222656 L 159 95.222656 L 159 149.761719 L 133 149.761719 Z M 133 95.222656 " clip-rule="nonzero"/></clipPath><clipPath id="clip-94"><path d="M 375.011719 187.5 C 375.011719 291.0625 291.0625 375.011719 187.5 375.011719 C 83.941406 375.011719 -0.0117188 291.0625 -0.0117188 187.5 C -0.0117188 83.9375 83.941406 -0.0117188 187.5 -0.0117188 C 291.0625 -0.0117188 375.011719 83.9375 375.011719 187.5 " clip-rule="nonzero"/></clipPath></defs><g clip-path="url(#clip-0)"><path fill="rgb(50.979614%, 84.309387%, 96.469116%)" d="M 375.011719 187.5 C 375.011719 291.0625 291.0625 375.011719 187.5 375.011719 C 83.941406 375.011719 -0.0117188 291.0625 -0.0117188 187.5 C -0.0117188 83.9375 83.941406 -0.0117188 187.5 -0.0117188 C 291.0625 -0.0117188 375.011719 83.9375 375.011719 187.5 " fill-opacity="1" fill-rule="nonzero"/></g><g clip-path="url(#clip-1)"><g clip-path="url(#clip-2)"><path fill="rgb(94.119263%, 63.139343%, 46.269226%)" d="M 280.210938 385.761719 C 282.886719 340.753906 285.554688 293.496094 285.554688 293.496094 L 258.535156 316.425781 C 258.992188 324.066406 259.953125 354.503906 260.867188 385.761719 L 280.210938 385.761719 " fill-opacity="1" fill-rule="nonzero"/></g></g><g clip-path="url(#clip-3)"><g clip-path="url(#clip-4)"><path fill="rgb(71.759033%, 59.21936%, 48.239136%)" d="M 258.535156 316.425781 L 262.289062 313.242188 L 262.292969 313.242188 L 258.535156 316.425781 " fill-opacity="1" fill-rule="nonzero"/></g></g><g clip-path="url(#clip-5)"><g clip-path="url(#clip-6)"><path fill="rgb(83.918762%, 52.159119%, 35.289001%)" d="M 260.109375 360.4375 C 259.457031 339.390625 258.863281 321.949219 258.535156 316.425781 L 262.292969 313.242188 L 284.835938 306.125 C 284.289062 315.761719 283.464844 330.121094 282.523438 346.339844 C 277.984375 349.027344 272.921875 351.261719 268.183594 351.671875 L 268.046875 356.878906 C 265.433594 358.125 262.785156 359.3125 260.109375 360.4375 " fill-opacity="1" fill-rule="nonzero"/></g></g><g clip-path="url(#clip-7)"><g clip-path="url(#clip-8)"><path fill="rgb(36.859131%, 56.079102%, 66.268921%)" d="M 283.683594 385.761719 C 285.75 336.25 287.53125 274.238281 283.878906 266.722656 C 277.699219 254 259.828125 246.277344 259.828125 246.277344 C 243.042969 246.988281 246.261719 327.261719 250.851562 385.761719 L 283.683594 385.761719 " fill-opacity="1" fill-rule="nonzero"/></g></g><g clip-path="url(#clip-9)"><g clip-path="url(#clip-10)"><path fill="rgb(30.198669%, 47.059631%, 56.469727%)" d="M 268.457031 385.761719 C 271.070312 334.523438 271.019531 272.40625 256.121094 265.269531 C 253.917969 264.214844 251.808594 264.078125 249.789062 264.675781 C 245.039062 291.945312 247.597656 344.3125 250.851562 385.761719 L 268.457031 385.761719 " fill-opacity="1" fill-rule="nonzero"/></g></g><g clip-path="url(#clip-11)"><g clip-path="url(#clip-12)"><path fill="rgb(94.119263%, 63.139343%, 46.269226%)" d="M 113.769531 385.761719 C 114.691406 354.503906 115.648438 324.066406 116.101562 316.425781 L 89.082031 293.496094 C 89.082031 293.496094 91.75 340.753906 94.425781 385.761719 L 113.769531 385.761719 " fill-opacity="1" fill-rule="nonzero"/></g></g><g clip-path="url(#clip-13)"><g clip-path="url(#clip-14)"><path fill="rgb(71.759033%, 59.21936%, 48.239136%)" d="M 116.101562 316.425781 L 112.347656 313.242188 L 116.101562 316.425781 " fill-opacity="1" fill-rule="nonzero"/></g></g><g clip-path="url(#clip-15)"><g clip-path="url(#clip-16)"><path fill="rgb(83.918762%, 52.159119%, 35.289001%)" d="M 114.535156 360.289062 C 111.855469 359.152344 109.199219 357.957031 106.585938 356.703125 L 106.453125 351.671875 C 101.710938 351.261719 96.652344 349.027344 92.113281 346.339844 C 91.171875 330.121094 90.347656 315.761719 89.804688 306.125 L 112.347656 313.242188 L 116.101562 316.425781 C 115.773438 321.9375 115.183594 339.308594 114.535156 360.289062 " fill-opacity="1" fill-rule="nonzero"/></g></g><g clip-path="url(#clip-17)"><g clip-path="url(#clip-18)"><path fill="rgb(36.859131%, 56.079102%, 66.268921%)" d="M 124.152344 385.761719 C 128.738281 327.261719 131.953125 246.988281 115.171875 246.277344 C 115.171875 246.277344 97.300781 254 91.121094 266.722656 C 87.472656 274.238281 89.25 336.25 91.320312 385.761719 L 124.152344 385.761719 " fill-opacity="1" fill-rule="nonzero"/></g></g><g clip-path="url(#clip-19)"><g clip-path="url(#clip-20)"><path fill="rgb(30.198669%, 47.059631%, 56.469727%)" d="M 124.148438 385.761719 C 127.398438 344.3125 129.960938 291.945312 125.210938 264.675781 C 123.195312 264.078125 121.085938 264.214844 118.878906 265.269531 C 103.976562 272.40625 103.925781 334.523438 106.546875 385.761719 L 124.148438 385.761719 " fill-opacity="1" fill-rule="nonzero"/></g></g><g clip-path="url(#clip-21)"><g clip-path="url(#clip-22)"><path fill="rgb(36.859131%, 56.079102%, 66.268921%)" d="M 245.632812 385.761719 C 252.976562 331.960938 263.082031 254.5 261.433594 246.980469 C 261.433594 246.980469 217.394531 232.433594 209.761719 228.800781 L 187.246094 232.347656 L 164.730469 228.800781 C 157.097656 232.433594 113.058594 246.980469 113.058594 246.980469 C 111.410156 254.5 121.515625 331.960938 128.859375 385.761719 L 245.632812 385.761719 " fill-opacity="1" fill-rule="nonzero"/></g></g><g clip-path="url(#clip-23)"><g clip-path="url(#clip-24)"><path fill="rgb(27.839661%, 44.309998%, 53.729248%)" d="M 188.582031 348.054688 L 159.628906 321.53125 L 163.160156 304.625 L 145.238281 295.949219 L 163.160156 229.492188 L 181.820312 275.449219 L 188.582031 348.054688 " fill-opacity="1" fill-rule="nonzero"/></g></g><g clip-path="url(#clip-25)"><g clip-path="url(#clip-26)"><path fill="rgb(27.839661%, 44.309998%, 53.729248%)" d="M 188.523438 349.144531 L 217.476562 322.621094 L 213.949219 305.714844 L 231.863281 297.042969 L 213.949219 230.582031 L 195.285156 276.539062 L 188.523438 349.144531 " fill-opacity="1" fill-rule="nonzero"/></g></g><g clip-path="url(#clip-27)"><g clip-path="url(#clip-28)"><path fill="rgb(82.749939%, 83.139038%, 61.178589%)" d="M 189.527344 242.996094 L 163.160156 240.363281 C 163.160156 240.363281 168.371094 331.277344 189.527344 348.902344 C 210.683594 331.277344 215.894531 240.363281 215.894531 240.363281 L 189.527344 242.996094 " fill-opacity="1" fill-rule="nonzero"/></g></g><g clip-path="url(#clip-29)"><g clip-path="url(#clip-30)"><path fill="rgb(13.729858%, 13.729858%, 19.999695%)" d="M 189.261719 243.871094 L 188.992188 242.996094 L 188.992188 244.75 L 185.683594 255.621094 C 185.683594 255.621094 178.332031 303.6875 177.242188 326.839844 C 180.566406 336.773438 184.617188 344.8125 189.527344 348.902344 C 194.207031 345.003906 198.105469 337.519531 201.339844 328.226562 C 200.492188 305.667969 192.835938 255.621094 192.835938 255.621094 L 189.527344 244.75 L 189.527344 242.996094 L 189.261719 243.871094 " fill-opacity="1" fill-rule="nonzero"/></g></g><g clip-path="url(#clip-31)"><g clip-path="url(#clip-32)"><path fill="rgb(18.03894%, 18.429565%, 27.059937%)" d="M 189.527344 244.304688 L 189.527344 244.28125 L 189.402344 244.292969 L 189.277344 244.28125 L 189.277344 244.304688 L 180.445312 245.273438 C 180.445312 245.273438 183.238281 252.179688 186.414062 256.726562 L 192.390625 256.726562 C 195.566406 252.179688 198.363281 245.273438 198.363281 245.273438 L 189.527344 244.304688 " fill-opacity="1" fill-rule="nonzero"/></g></g><g clip-path="url(#clip-33)"><g clip-path="url(#clip-34)"><path fill="rgb(85.488892%, 54.508972%, 39.608765%)" d="M 207.4375 196.808594 L 187.71875 202.535156 L 168.003906 196.808594 C 168.003906 196.808594 166.453125 224.074219 161.816406 230.347656 C 161.816406 230.347656 174.90625 243.4375 187.71875 243.980469 C 200.535156 243.4375 213.625 230.347656 213.625 230.347656 C 208.988281 224.074219 207.4375 196.808594 207.4375 196.808594 " fill-opacity="1" fill-rule="nonzero"/></g></g><g clip-path="url(#clip-35)"><g clip-path="url(#clip-36)"><path fill="rgb(56.469727%, 51.759338%, 45.878601%)" d="M 211.652344 225.992188 C 210.042969 220.894531 208.96875 213.246094 208.308594 207.058594 C 208.96875 213.246094 210.042969 220.894531 211.65625 225.992188 M 165.738281 217.40625 C 166.328125 213.917969 166.792969 210.253906 167.140625 207 C 167.140625 207 167.140625 207 167.144531 207 C 166.792969 210.253906 166.335938 213.917969 165.738281 217.40625 " fill-opacity="1" fill-rule="nonzero"/></g></g><g clip-path="url(#clip-37)"><g clip-path="url(#clip-38)"><path fill="rgb(69.018555%, 40.388489%, 28.62854%)" d="M 194.484375 227.878906 C 183.742188 227.878906 174.832031 224.941406 165.738281 217.40625 C 166.335938 213.917969 166.792969 210.253906 167.144531 207 C 174.636719 212.21875 182.148438 215.410156 187.71875 215.410156 C 187.726562 215.410156 187.734375 215.410156 187.746094 215.410156 C 187.75 215.410156 187.75 215.410156 187.753906 215.410156 C 187.757812 215.410156 187.765625 215.410156 187.769531 215.410156 C 187.773438 215.410156 187.777344 215.410156 187.777344 215.410156 C 187.789062 215.410156 187.796875 215.410156 187.804688 215.410156 C 187.804688 215.410156 187.808594 215.410156 187.808594 215.410156 C 187.816406 215.410156 187.820312 215.410156 187.828125 215.410156 C 187.828125 215.410156 187.835938 215.410156 187.839844 215.410156 C 187.84375 215.410156 187.851562 215.410156 187.859375 215.410156 C 187.859375 215.410156 187.859375 215.410156 187.863281 215.410156 C 187.871094 215.410156 187.882812 215.410156 187.890625 215.410156 C 187.890625 215.410156 187.894531 215.410156 187.894531 215.410156 C 187.902344 215.410156 187.90625 215.410156 187.914062 215.410156 C 187.914062 215.410156 187.917969 215.410156 187.921875 215.410156 C 187.933594 215.410156 187.9375 215.410156 187.945312 215.410156 C 187.949219 215.410156 187.949219 215.410156 187.949219 215.410156 C 187.957031 215.410156 187.964844 215.410156 187.96875 215.410156 C 187.976562 215.410156 187.980469 215.410156 187.980469 215.410156 C 187.988281 215.410156 187.992188 215.410156 188 215.410156 C 188 215.410156 188.003906 215.410156 188.003906 215.410156 C 188.011719 215.410156 188.023438 215.410156 188.03125 215.410156 C 188.035156 215.410156 188.035156 215.410156 188.039062 215.410156 C 188.042969 215.410156 188.050781 215.410156 188.054688 215.410156 C 188.058594 215.410156 188.0625 215.410156 188.0625 215.410156 C 188.074219 215.410156 188.082031 215.40625 188.089844 215.40625 C 188.097656 215.40625 188.105469 215.40625 188.117188 215.40625 C 188.121094 215.40625 188.121094 215.40625 188.125 215.40625 C 188.132812 215.40625 188.136719 215.40625 188.144531 215.40625 C 188.144531 215.40625 188.148438 215.40625 188.148438 215.40625 C 188.15625 215.40625 188.167969 215.40625 188.175781 215.40625 C 188.179688 215.40625 188.179688 215.40625 188.179688 215.40625 C 188.1875 215.40625 188.195312 215.40625 188.203125 215.40625 C 188.203125 215.40625 188.203125 215.40625 188.207031 215.40625 C 188.21875 215.40625 188.226562 215.40625 188.234375 215.402344 C 188.242188 215.402344 188.25 215.402344 188.265625 215.402344 C 188.273438 215.402344 188.28125 215.402344 188.289062 215.402344 C 188.289062 215.402344 188.289062 215.402344 188.292969 215.402344 C 188.3125 215.402344 188.328125 215.402344 188.347656 215.398438 C 188.347656 215.398438 188.347656 215.398438 188.355469 215.398438 C 188.378906 215.398438 188.410156 215.398438 188.433594 215.398438 C 188.4375 215.398438 188.4375 215.398438 188.4375 215.398438 C 188.46875 215.390625 188.496094 215.390625 188.523438 215.390625 C 193.988281 215.105469 201.152344 211.996094 208.308594 207.058594 C 208.96875 213.246094 210.042969 220.894531 211.652344 225.992188 C 205.34375 227.1875 199.699219 227.878906 194.484375 227.878906 " fill-opacity="1" fill-rule="nonzero"/></g></g><g clip-path="url(#clip-39)"><g clip-path="url(#clip-40)"><path fill="rgb(81.959534%, 47.839355%, 31.369019%)" d="M 232.007812 145.695312 C 231.347656 154.558594 235.199219 162.074219 240.617188 162.476562 C 246.027344 162.878906 250.953125 156.023438 251.613281 147.15625 C 252.277344 138.292969 248.421875 130.78125 243.011719 130.375 C 237.59375 129.96875 232.667969 136.828125 232.007812 145.695312 " fill-opacity="1" fill-rule="nonzero"/></g></g><g clip-path="url(#clip-41)"><g clip-path="url(#clip-42)"><path fill="rgb(72.938538%, 39.219666%, 28.62854%)" d="M 241.707031 157.523438 C 240.527344 157.523438 239.398438 156.371094 238.84375 152.628906 C 238.84375 152.628906 245.472656 150.777344 239.703125 148.199219 L 238.660156 147.800781 C 238.660156 146.917969 238.660156 146.050781 238.660156 145.1875 C 238.660156 143.445312 238.644531 141.671875 238.59375 139.875 C 239.265625 138.125 240.488281 136.769531 242.648438 136.769531 C 242.722656 136.769531 242.792969 136.769531 242.867188 136.773438 C 248.265625 136.996094 247.84375 143.488281 247.90625 143.488281 C 247.917969 143.488281 247.945312 143.292969 248.019531 142.824219 C 248.019531 142.824219 247.980469 145.328125 246.617188 145.644531 C 246.617188 145.644531 247.5 140.511719 242.867188 139.417969 C 242.867188 139.417969 245.976562 141.191406 245.445312 148.757812 C 245.445312 148.757812 245.320312 145.144531 240.820312 144.089844 C 240.820312 144.089844 247.574219 149.78125 241.8125 153.53125 C 241.8125 153.53125 241.917969 155.617188 243.398438 155.617188 C 243.933594 155.617188 244.652344 155.339844 245.609375 154.585938 C 245.609375 154.585938 243.59375 157.523438 241.707031 157.523438 " fill-opacity="1" fill-rule="nonzero"/></g></g><g clip-path="url(#clip-43)"><g clip-path="url(#clip-44)"><path fill="rgb(60.389709%, 30.979919%, 21.179199%)" d="M 248.039062 144.277344 C 248.054688 143.292969 247.914062 142.308594 247.625 141.382812 C 247.488281 140.917969 247.296875 140.472656 247.054688 140.058594 C 246.824219 139.640625 246.542969 139.246094 246.214844 138.90625 C 246.0625 138.726562 245.894531 138.5625 245.703125 138.421875 C 245.519531 138.273438 245.351562 138.109375 245.136719 138.003906 C 244.75 137.734375 244.308594 137.558594 243.871094 137.378906 C 243.417969 137.253906 242.960938 137.097656 242.503906 137.050781 C 242.03125 136.996094 241.621094 137.015625 241.195312 137.160156 C 240.378906 137.433594 239.75 138.132812 239.339844 138.953125 C 238.910156 139.777344 238.664062 140.710938 238.480469 141.648438 C 238.308594 142.59375 238.207031 143.554688 238.160156 144.523438 C 238.136719 145.007812 238.128906 145.496094 238.128906 145.980469 L 238.148438 147.453125 L 237.816406 147.019531 C 238.617188 147.261719 239.371094 147.554688 240.121094 147.914062 C 240.492188 148.09375 240.859375 148.292969 241.21875 148.539062 C 241.566406 148.785156 241.917969 149.0625 242.191406 149.484375 C 242.332031 149.6875 242.421875 149.960938 242.453125 150.242188 C 242.453125 150.527344 242.382812 150.824219 242.238281 151.039062 C 241.972656 151.480469 241.601562 151.746094 241.242188 151.988281 C 240.503906 152.429688 239.738281 152.730469 238.964844 152.972656 L 239.210938 152.582031 C 239.328125 153.523438 239.550781 154.492188 239.917969 155.371094 C 240.105469 155.808594 240.335938 156.226562 240.632812 156.570312 C 240.789062 156.734375 240.953125 156.886719 241.144531 156.992188 C 241.328125 157.105469 241.539062 157.15625 241.753906 157.1875 C 241.964844 157.207031 242.1875 157.183594 242.410156 157.132812 C 242.632812 157.058594 242.847656 156.972656 243.054688 156.859375 C 243.472656 156.628906 243.863281 156.332031 244.226562 155.996094 C 244.945312 155.328125 245.585938 154.558594 246.199219 153.773438 C 245.671875 154.617188 245.097656 155.445312 244.402344 156.175781 C 244.058594 156.546875 243.675781 156.886719 243.242188 157.171875 C 243.023438 157.320312 242.785156 157.429688 242.535156 157.527344 C 242.273438 157.609375 242 157.671875 241.71875 157.65625 C 241.4375 157.632812 241.148438 157.570312 240.90625 157.429688 C 240.648438 157.304688 240.441406 157.125 240.246094 156.933594 C 239.867188 156.542969 239.59375 156.085938 239.367188 155.617188 C 238.925781 154.675781 238.65625 153.695312 238.480469 152.675781 L 238.429688 152.390625 L 238.722656 152.277344 C 239.457031 152 240.1875 151.707031 240.8125 151.316406 C 241.109375 151.109375 241.394531 150.875 241.53125 150.632812 C 241.617188 150.511719 241.617188 150.398438 241.628906 150.289062 C 241.605469 150.175781 241.582031 150.054688 241.488281 149.929688 C 241.140625 149.417969 240.425781 149.019531 239.746094 148.695312 C 239.050781 148.375 238.308594 148.101562 237.574219 147.890625 L 237.257812 147.800781 L 237.242188 147.453125 C 237.222656 146.996094 237.207031 146.464844 237.214844 145.972656 C 237.222656 145.472656 237.242188 144.976562 237.269531 144.472656 C 237.335938 143.476562 237.449219 142.472656 237.652344 141.484375 C 237.859375 140.496094 238.132812 139.507812 238.628906 138.578125 C 238.878906 138.125 239.167969 137.667969 239.566406 137.292969 C 239.957031 136.914062 240.449219 136.621094 240.988281 136.464844 C 241.5 136.300781 242.105469 136.308594 242.601562 136.394531 C 243.125 136.476562 243.59375 136.664062 244.085938 136.824219 C 244.554688 137.039062 245.015625 137.25 245.433594 137.5625 C 245.65625 137.695312 245.84375 137.875 246.03125 138.046875 C 246.230469 138.214844 246.40625 138.398438 246.5625 138.601562 C 246.730469 138.796875 246.886719 139 247.011719 139.222656 C 247.144531 139.441406 247.28125 139.65625 247.375 139.890625 C 247.59375 140.347656 247.761719 140.828125 247.867188 141.316406 C 248.105469 142.285156 248.160156 143.296875 248.039062 144.277344 " fill-opacity="1" fill-rule="nonzero"/></g></g><g clip-path="url(#clip-45)"><g clip-path="url(#clip-46)"><path fill="rgb(60.389709%, 30.979919%, 21.179199%)" d="M 245.59375 147.53125 C 245.59375 147.53125 245.621094 146.734375 245.460938 145.5625 C 245.378906 144.976562 245.25 144.296875 245.03125 143.601562 C 244.914062 143.253906 244.796875 142.898438 244.628906 142.554688 C 244.492188 142.195312 244.273438 141.882812 244.082031 141.558594 C 243.859375 141.253906 243.628906 140.949219 243.359375 140.703125 C 243.082031 140.46875 242.828125 140.210938 242.511719 140.070312 C 242.363281 139.984375 242.21875 139.910156 242.078125 139.828125 C 241.914062 139.777344 241.765625 139.730469 241.617188 139.6875 C 241.464844 139.640625 241.324219 139.59375 241.183594 139.550781 C 241.039062 139.539062 240.894531 139.519531 240.757812 139.511719 C 240.484375 139.496094 240.238281 139.4375 240.011719 139.460938 C 239.785156 139.480469 239.589844 139.496094 239.433594 139.511719 C 239.109375 139.539062 238.925781 139.550781 238.925781 139.550781 L 238.796875 138.46875 C 238.796875 138.46875 239.003906 138.46875 239.375 138.46875 C 239.5625 138.46875 239.785156 138.46875 240.046875 138.46875 C 240.300781 138.464844 240.59375 138.554688 240.90625 138.601562 C 241.0625 138.636719 241.226562 138.664062 241.394531 138.695312 C 241.558594 138.757812 241.722656 138.832031 241.898438 138.894531 C 242.070312 138.96875 242.242188 139.039062 242.421875 139.113281 C 242.585938 139.222656 242.75 139.328125 242.917969 139.445312 C 243.269531 139.644531 243.539062 139.964844 243.828125 140.253906 C 244.105469 140.5625 244.332031 140.917969 244.542969 141.273438 C 244.722656 141.644531 244.929688 142.003906 245.039062 142.390625 C 245.183594 142.765625 245.277344 143.148438 245.363281 143.515625 C 245.527344 144.25 245.601562 144.949219 245.632812 145.546875 C 245.6875 146.738281 245.59375 147.53125 245.59375 147.53125 " fill-opacity="1" fill-rule="nonzero"/></g></g><g clip-path="url(#clip-47)"><g clip-path="url(#clip-48)"><path fill="rgb(81.959534%, 47.839355%, 31.369019%)" d="M 143.632812 145.695312 C 144.289062 154.558594 140.4375 162.074219 135.023438 162.476562 C 129.609375 162.878906 124.6875 156.023438 124.023438 147.15625 C 123.363281 138.292969 127.214844 130.78125 132.632812 130.375 C 138.046875 129.96875 142.96875 136.828125 143.632812 145.695312 " fill-opacity="1" fill-rule="nonzero"/></g></g><g clip-path="url(#clip-49)"><g clip-path="url(#clip-50)"><path fill="rgb(72.938538%, 39.219666%, 28.62854%)" d="M 133.738281 157.195312 C 133.574219 157.195312 133.402344 157.167969 133.234375 157.132812 C 133.011719 157.058594 132.792969 156.972656 132.585938 156.859375 C 132.167969 156.628906 131.777344 156.332031 131.417969 155.992188 C 130.996094 155.605469 130.605469 155.179688 130.230469 154.742188 C 131.089844 155.378906 131.742188 155.617188 132.242188 155.617188 C 133.71875 155.617188 133.828125 153.53125 133.828125 153.53125 C 128.0625 149.78125 134.816406 144.089844 134.816406 144.089844 C 130.316406 145.144531 130.195312 148.757812 130.195312 148.757812 C 130.105469 147.445312 130.121094 146.308594 130.210938 145.324219 C 130.292969 144.796875 130.417969 144.203125 130.613281 143.597656 C 130.722656 143.253906 130.84375 142.894531 131.011719 142.554688 C 131.148438 142.195312 131.371094 141.882812 131.558594 141.554688 C 131.785156 141.25 132.015625 140.949219 132.277344 140.703125 C 132.558594 140.46875 132.8125 140.210938 133.128906 140.070312 C 133.28125 139.984375 133.425781 139.90625 133.566406 139.828125 C 133.722656 139.777344 133.875 139.730469 134.023438 139.6875 C 134.175781 139.640625 134.320312 139.59375 134.460938 139.550781 C 134.605469 139.539062 134.75 139.519531 134.886719 139.507812 C 135.117188 139.5 135.320312 139.453125 135.515625 139.453125 C 135.554688 139.453125 135.59375 139.457031 135.632812 139.460938 C 135.855469 139.480469 136.054688 139.496094 136.210938 139.507812 C 136.363281 139.519531 136.484375 139.53125 136.570312 139.539062 C 136.671875 139.789062 136.761719 140.050781 136.835938 140.316406 C 136.800781 141.960938 136.78125 143.589844 136.78125 145.1875 C 136.78125 145.683594 136.78125 146.175781 136.78125 146.675781 C 136.78125 146.910156 136.78125 147.140625 136.78125 147.375 C 136.355469 147.53125 135.933594 147.710938 135.515625 147.914062 C 135.144531 148.09375 134.777344 148.292969 134.421875 148.539062 C 134.070312 148.785156 133.722656 149.0625 133.449219 149.484375 C 133.304688 149.6875 133.214844 149.960938 133.191406 150.242188 C 133.1875 150.527344 133.253906 150.824219 133.394531 151.039062 C 133.667969 151.480469 134.039062 151.746094 134.394531 151.988281 C 135.039062 152.375 135.707031 152.652344 136.386719 152.878906 C 136.261719 153.726562 136.050781 154.585938 135.722656 155.371094 C 135.535156 155.808594 135.304688 156.226562 135.003906 156.570312 C 134.851562 156.734375 134.683594 156.886719 134.5 156.992188 C 134.316406 157.105469 134.101562 157.15625 133.890625 157.1875 C 133.84375 157.191406 133.789062 157.195312 133.738281 157.195312 M 129.023438 145.644531 C 127.996094 145.40625 127.71875 143.921875 127.648438 143.207031 C 127.652344 143.164062 127.65625 143.117188 127.660156 143.074219 C 127.703125 143.363281 127.722656 143.488281 127.730469 143.488281 C 127.753906 143.488281 127.726562 142.886719 127.835938 142.046875 C 127.886719 141.820312 127.945312 141.601562 128.011719 141.382812 C 128.152344 140.917969 128.34375 140.472656 128.585938 140.058594 C 128.820312 139.640625 129.09375 139.246094 129.421875 138.90625 C 129.578125 138.726562 129.746094 138.5625 129.933594 138.417969 C 130.117188 138.273438 130.292969 138.109375 130.503906 138.003906 C 130.894531 137.734375 131.332031 137.558594 131.769531 137.378906 C 132.21875 137.253906 132.683594 137.097656 133.140625 137.050781 C 133.292969 137.027344 133.441406 137.019531 133.589844 137.019531 C 133.878906 137.019531 134.15625 137.0625 134.441406 137.160156 C 135.09375 137.378906 135.621094 137.863281 136.023438 138.46875 C 135.890625 138.46875 135.75 138.46875 135.597656 138.46875 C 135.59375 138.46875 135.589844 138.46875 135.585938 138.46875 C 135.328125 138.46875 135.042969 138.554688 134.730469 138.605469 C 134.574219 138.636719 134.414062 138.664062 134.242188 138.695312 C 134.085938 138.757812 133.914062 138.828125 133.738281 138.894531 C 133.574219 138.96875 133.394531 139.039062 133.21875 139.113281 C 133.066406 139.214844 132.914062 139.316406 132.757812 139.421875 C 128.140625 140.519531 129.023438 145.644531 129.023438 145.644531 M 129.324219 138.3125 C 129.648438 137.941406 130.035156 137.617188 130.503906 137.359375 C 130.402344 137.425781 130.300781 137.492188 130.207031 137.5625 C 129.980469 137.695312 129.796875 137.875 129.605469 138.046875 C 129.507812 138.132812 129.414062 138.21875 129.324219 138.3125 " fill-opacity="1" fill-rule="nonzero"/></g></g><g clip-path="url(#clip-51)"><g clip-path="url(#clip-52)"><path fill="rgb(60.389709%, 30.979919%, 21.179199%)" d="M 127.605469 144.277344 C 127.480469 143.296875 127.535156 142.285156 127.769531 141.316406 C 127.882812 140.824219 128.046875 140.347656 128.265625 139.890625 C 128.363281 139.65625 128.496094 139.441406 128.632812 139.222656 C 128.753906 139 128.90625 138.796875 129.074219 138.605469 C 129.230469 138.398438 129.410156 138.214844 129.605469 138.046875 C 129.796875 137.875 129.980469 137.695312 130.207031 137.5625 C 130.621094 137.25 131.089844 137.039062 131.558594 136.824219 C 132.042969 136.664062 132.515625 136.476562 133.039062 136.394531 C 133.53125 136.308594 134.140625 136.300781 134.65625 136.464844 C 135.1875 136.621094 135.683594 136.914062 136.070312 137.292969 C 136.472656 137.667969 136.761719 138.125 137.011719 138.578125 C 137.507812 139.507812 137.78125 140.496094 137.992188 141.484375 C 138.191406 142.472656 138.304688 143.476562 138.367188 144.472656 C 138.398438 144.976562 138.417969 145.472656 138.421875 145.972656 C 138.429688 146.464844 138.414062 146.996094 138.390625 147.453125 L 138.378906 147.800781 L 138.0625 147.890625 C 137.332031 148.101562 136.585938 148.375 135.890625 148.695312 C 135.214844 149.019531 134.503906 149.417969 134.148438 149.929688 C 134.058594 150.054688 134.035156 150.175781 134.011719 150.289062 C 134.019531 150.398438 134.019531 150.511719 134.105469 150.632812 C 134.242188 150.875 134.527344 151.109375 134.824219 151.316406 C 135.453125 151.707031 136.183594 152 136.914062 152.277344 L 137.207031 152.390625 L 137.160156 152.675781 C 136.980469 153.695312 136.714844 154.675781 136.269531 155.617188 C 136.042969 156.085938 135.773438 156.542969 135.398438 156.933594 C 135.199219 157.125 134.988281 157.304688 134.738281 157.429688 C 134.488281 157.570312 134.199219 157.632812 133.921875 157.65625 C 133.636719 157.671875 133.363281 157.609375 133.105469 157.527344 C 132.859375 157.429688 132.613281 157.320312 132.402344 157.171875 C 131.96875 156.886719 131.582031 156.546875 131.238281 156.175781 C 130.542969 155.445312 129.96875 154.617188 129.441406 153.773438 C 130.058594 154.558594 130.691406 155.328125 131.417969 155.992188 C 131.777344 156.332031 132.167969 156.628906 132.585938 156.859375 C 132.792969 156.972656 133.011719 157.058594 133.234375 157.132812 C 133.453125 157.183594 133.675781 157.207031 133.890625 157.1875 C 134.101562 157.15625 134.316406 157.105469 134.5 156.992188 C 134.683594 156.886719 134.851562 156.734375 135.003906 156.570312 C 135.304688 156.226562 135.535156 155.808594 135.722656 155.371094 C 136.085938 154.492188 136.3125 153.523438 136.429688 152.582031 L 136.675781 152.972656 C 135.898438 152.730469 135.132812 152.429688 134.394531 151.988281 C 134.039062 151.746094 133.667969 151.480469 133.394531 151.039062 C 133.253906 150.824219 133.1875 150.527344 133.191406 150.242188 C 133.214844 149.960938 133.304688 149.6875 133.449219 149.484375 C 133.722656 149.0625 134.070312 148.785156 134.421875 148.539062 C 134.777344 148.292969 135.144531 148.09375 135.515625 147.914062 C 136.265625 147.554688 137.019531 147.261719 137.820312 147.019531 L 137.492188 147.453125 L 137.511719 145.980469 C 137.511719 145.496094 137.5 145.007812 137.476562 144.523438 C 137.429688 143.554688 137.335938 142.59375 137.15625 141.648438 C 136.976562 140.710938 136.726562 139.777344 136.300781 138.953125 C 135.886719 138.132812 135.261719 137.433594 134.441406 137.160156 C 134.015625 137.015625 133.613281 136.996094 133.140625 137.050781 C 132.683594 137.097656 132.21875 137.253906 131.769531 137.378906 C 131.332031 137.558594 130.894531 137.734375 130.503906 138.003906 C 130.292969 138.109375 130.117188 138.273438 129.933594 138.417969 C 129.746094 138.5625 129.578125 138.726562 129.421875 138.90625 C 129.09375 139.246094 128.820312 139.640625 128.585938 140.058594 C 128.34375 140.472656 128.152344 140.917969 128.011719 141.382812 C 127.726562 142.308594 127.582031 143.292969 127.605469 144.277344 " fill-opacity="1" fill-rule="nonzero"/></g></g><g clip-path="url(#clip-53)"><g clip-path="url(#clip-54)"><path fill="rgb(60.389709%, 30.979919%, 21.179199%)" d="M 130.046875 147.53125 C 130.046875 147.53125 129.953125 146.738281 130.011719 145.546875 C 130.042969 144.949219 130.109375 144.25 130.28125 143.515625 C 130.359375 143.144531 130.453125 142.765625 130.597656 142.390625 C 130.710938 142.003906 130.914062 141.644531 131.09375 141.273438 C 131.3125 140.917969 131.53125 140.5625 131.808594 140.253906 C 132.101562 139.960938 132.371094 139.644531 132.726562 139.445312 C 132.890625 139.328125 133.058594 139.222656 133.21875 139.113281 C 133.394531 139.039062 133.574219 138.96875 133.738281 138.894531 C 133.914062 138.828125 134.085938 138.757812 134.242188 138.695312 C 134.414062 138.664062 134.574219 138.636719 134.730469 138.605469 C 135.046875 138.554688 135.339844 138.46875 135.597656 138.46875 C 135.851562 138.46875 136.078125 138.46875 136.261719 138.46875 C 136.632812 138.46875 136.847656 138.46875 136.847656 138.46875 L 136.71875 139.550781 C 136.71875 139.550781 136.535156 139.539062 136.210938 139.507812 C 136.054688 139.496094 135.855469 139.480469 135.632812 139.460938 C 135.402344 139.4375 135.160156 139.496094 134.886719 139.507812 C 134.75 139.519531 134.605469 139.539062 134.460938 139.550781 C 134.320312 139.59375 134.175781 139.640625 134.023438 139.6875 C 133.875 139.730469 133.722656 139.777344 133.566406 139.828125 C 133.425781 139.90625 133.28125 139.984375 133.128906 140.070312 C 132.8125 140.210938 132.558594 140.46875 132.277344 140.703125 C 132.015625 140.949219 131.785156 141.25 131.558594 141.554688 C 131.371094 141.882812 131.148438 142.195312 131.011719 142.554688 C 130.84375 142.894531 130.722656 143.253906 130.613281 143.597656 C 130.386719 144.296875 130.257812 144.976562 130.175781 145.558594 C 130.019531 146.734375 130.046875 147.53125 130.046875 147.53125 " fill-opacity="1" fill-rule="nonzero"/></g></g><g clip-path="url(#clip-55)"><g clip-path="url(#clip-56)"><path fill="rgb(94.119263%, 63.139343%, 46.269226%)" d="M 238.660156 145.1875 C 238.660156 153.867188 238.652344 163.875 235.433594 173.566406 C 228.222656 195.285156 201.703125 215.410156 187.71875 215.410156 C 173.535156 215.410156 146.773438 194.699219 139.695312 172.617188 C 136.6875 163.226562 136.78125 153.585938 136.78125 145.1875 C 136.78125 117.058594 141.980469 80.238281 187.71875 80.238281 C 233.457031 80.238281 238.660156 117.058594 238.660156 145.1875 " fill-opacity="1" fill-rule="nonzero"/></g></g><g clip-path="url(#clip-57)"><g clip-path="url(#clip-58)"><path fill="rgb(36.079407%, 23.139954%, 21.569824%)" d="M 169.96875 181.125 C 170.019531 181.15625 177.097656 186.890625 187.3125 186.902344 C 192.421875 186.902344 198.300781 185.449219 204.402344 181.144531 L 203.773438 180.253906 C 197.847656 184.429688 192.21875 185.804688 187.3125 185.808594 C 182.414062 185.808594 178.242188 184.421875 175.292969 183.03125 C 173.820312 182.335938 172.652344 181.644531 171.859375 181.128906 C 171.464844 180.867188 171.15625 180.652344 170.957031 180.5 C 170.855469 180.429688 170.777344 180.371094 170.726562 180.332031 L 170.65625 180.277344 L 169.972656 181.125 " fill-opacity="1" fill-rule="nonzero"/></g></g><g clip-path="url(#clip-59)"><g clip-path="url(#clip-60)"><path fill="rgb(71.759033%, 59.21936%, 48.239136%)" d="M 237.992188 129.835938 C 237.464844 124.457031 236.570312 119.046875 235.085938 113.890625 C 236.789062 118.832031 237.894531 124.210938 237.992188 129.835938 M 161.296875 85.972656 C 163.015625 83.082031 165.132812 82.949219 175.332031 81.265625 C 169.949219 82.230469 165.304688 83.84375 161.296875 85.972656 " fill-opacity="1" fill-rule="nonzero"/></g></g><g clip-path="url(#clip-61)"><g clip-path="url(#clip-62)"><path fill="rgb(83.918762%, 52.159119%, 35.289001%)" d="M 237.972656 132.140625 C 230.285156 119.921875 225.988281 116.460938 218.34375 116.460938 C 214.992188 116.460938 210.992188 117.132812 205.777344 118.015625 C 200.695312 120.164062 196.042969 121.105469 191.785156 121.101562 C 174.863281 121.101562 164.101562 106.324219 157.601562 93.835938 C 159.546875 89.933594 160.363281 87.542969 161.296875 85.972656 C 165.304688 83.84375 169.949219 82.230469 175.332031 81.265625 C 175.582031 81.226562 175.828125 81.183594 176.082031 81.144531 C 191.21875 83.453125 205.953125 85.710938 216.488281 87.351562 C 221.816406 90.675781 230.566406 100.738281 235.085938 113.890625 C 236.570312 119.046875 237.464844 124.457031 237.992188 129.835938 C 238.003906 130.605469 238 131.367188 237.972656 132.140625 " fill-opacity="1" fill-rule="nonzero"/></g></g><g clip-path="url(#clip-63)"><g clip-path="url(#clip-64)"><path fill="rgb(76.469421%, 45.489502%, 30.589294%)" d="M 187.746094 215.410156 C 187.75 215.410156 187.75 215.410156 187.753906 215.410156 C 187.75 215.410156 187.75 215.410156 187.746094 215.410156 M 187.769531 215.410156 C 187.773438 215.410156 187.777344 215.410156 187.777344 215.410156 C 187.777344 215.410156 187.773438 215.410156 187.769531 215.410156 M 187.804688 215.410156 C 187.804688 215.410156 187.808594 215.410156 187.808594 215.410156 C 187.808594 215.410156 187.804688 215.410156 187.804688 215.410156 M 187.828125 215.410156 C 187.828125 215.410156 187.835938 215.410156 187.839844 215.410156 C 187.835938 215.410156 187.828125 215.410156 187.828125 215.410156 M 187.859375 215.410156 C 187.859375 215.410156 187.859375 215.410156 187.863281 215.410156 C 187.859375 215.410156 187.859375 215.410156 187.859375 215.410156 M 187.890625 215.410156 C 187.890625 215.410156 187.894531 215.410156 187.894531 215.410156 C 187.894531 215.410156 187.890625 215.410156 187.890625 215.410156 M 187.914062 215.410156 C 187.914062 215.410156 187.917969 215.410156 187.921875 215.410156 C 187.917969 215.410156 187.914062 215.410156 187.914062 215.410156 M 187.945312 215.410156 C 187.949219 215.410156 187.949219 215.410156 187.949219 215.410156 C 187.949219 215.410156 187.949219 215.410156 187.945312 215.410156 M 187.96875 215.410156 C 187.976562 215.410156 187.980469 215.410156 187.980469 215.410156 C 187.980469 215.410156 187.976562 215.410156 187.96875 215.410156 M 188 215.410156 C 188 215.410156 188.003906 215.410156 188.003906 215.410156 C 188.003906 215.410156 188 215.410156 188 215.410156 M 188.03125 215.410156 C 188.035156 215.410156 188.035156 215.410156 188.039062 215.410156 C 188.035156 215.410156 188.035156 215.410156 188.03125 215.410156 M 188.054688 215.410156 C 188.058594 215.410156 188.0625 215.410156 188.0625 215.410156 C 188.0625 215.410156 188.058594 215.410156 188.054688 215.410156 M 188.117188 215.40625 C 188.121094 215.40625 188.121094 215.40625 188.125 215.40625 C 188.121094 215.40625 188.121094 215.40625 188.117188 215.40625 M 188.144531 215.40625 L 188.148438 215.40625 C 188.148438 215.40625 188.144531 215.40625 188.144531 215.40625 M 188.175781 215.40625 L 188.179688 215.40625 C 188.179688 215.40625 188.179688 215.40625 188.175781 215.40625 M 188.203125 215.40625 C 188.203125 215.40625 188.203125 215.40625 188.207031 215.40625 C 188.203125 215.40625 188.203125 215.40625 188.203125 215.40625 M 188.289062 215.402344 C 188.289062 215.402344 188.292969 215.402344 188.292969 215.402344 C 188.289062 215.402344 188.289062 215.402344 188.289062 215.402344 M 188.347656 215.398438 L 188.355469 215.398438 C 188.347656 215.398438 188.347656 215.398438 188.347656 215.398438 M 188.433594 215.398438 L 188.4375 215.398438 C 188.4375 215.398438 188.4375 215.398438 188.433594 215.398438 " fill-opacity="1" fill-rule="nonzero"/></g></g><g clip-path="url(#clip-65)"><g clip-path="url(#clip-66)"><path fill="rgb(83.918762%, 52.159119%, 35.289001%)" d="M 187.71875 215.410156 C 173.535156 215.410156 146.773438 194.699219 139.695312 172.617188 C 137.695312 166.367188 137.066406 160.011719 136.871094 153.980469 C 136.851562 153.398438 136.835938 152.820312 136.824219 152.242188 C 136.800781 150.914062 136.785156 149.605469 136.78125 148.320312 C 136.78125 148.003906 136.78125 147.683594 136.78125 147.375 C 136.78125 147.140625 136.78125 146.910156 136.78125 146.675781 C 136.78125 146.175781 136.78125 145.683594 136.78125 145.1875 C 136.78125 127.695312 141.484375 104.359375 154.375 92.273438 C 144.675781 104.320312 141.007812 125.179688 141.007812 140.605469 C 141.007812 149 140.914062 158.644531 143.921875 168.035156 C 151 190.113281 177.761719 210.824219 191.945312 210.824219 C 200.425781 210.824219 213.507812 203.417969 224.105469 192.75 C 213.289062 205.46875 198.21875 214.886719 188.523438 215.390625 C 188.496094 215.390625 188.464844 215.390625 188.4375 215.398438 L 188.433594 215.398438 C 188.410156 215.398438 188.378906 215.398438 188.355469 215.398438 L 188.347656 215.398438 C 188.332031 215.402344 188.3125 215.402344 188.292969 215.402344 C 188.292969 215.402344 188.289062 215.402344 188.289062 215.402344 C 188.28125 215.402344 188.273438 215.402344 188.265625 215.402344 C 188.25 215.402344 188.242188 215.402344 188.234375 215.402344 C 188.226562 215.40625 188.21875 215.40625 188.207031 215.40625 C 188.203125 215.40625 188.203125 215.40625 188.203125 215.40625 C 188.195312 215.40625 188.1875 215.40625 188.179688 215.40625 L 188.175781 215.40625 C 188.167969 215.40625 188.15625 215.40625 188.148438 215.40625 L 188.144531 215.40625 C 188.136719 215.40625 188.132812 215.40625 188.125 215.40625 C 188.121094 215.40625 188.121094 215.40625 188.117188 215.40625 C 188.105469 215.40625 188.097656 215.40625 188.089844 215.40625 C 188.082031 215.40625 188.074219 215.410156 188.0625 215.410156 C 188.0625 215.410156 188.058594 215.410156 188.054688 215.410156 C 188.050781 215.410156 188.042969 215.410156 188.039062 215.410156 C 188.035156 215.410156 188.035156 215.410156 188.03125 215.410156 C 188.023438 215.410156 188.011719 215.410156 188.003906 215.410156 C 188.003906 215.410156 188 215.410156 188 215.410156 C 187.992188 215.410156 187.988281 215.410156 187.980469 215.410156 C 187.980469 215.410156 187.976562 215.410156 187.96875 215.410156 C 187.964844 215.410156 187.957031 215.410156 187.949219 215.410156 C 187.949219 215.410156 187.949219 215.410156 187.945312 215.410156 C 187.941406 215.410156 187.929688 215.410156 187.921875 215.410156 C 187.917969 215.410156 187.914062 215.410156 187.914062 215.410156 C 187.90625 215.410156 187.902344 215.410156 187.894531 215.410156 C 187.894531 215.410156 187.890625 215.410156 187.890625 215.410156 C 187.882812 215.410156 187.871094 215.410156 187.863281 215.410156 C 187.859375 215.410156 187.859375 215.410156 187.859375 215.410156 C 187.851562 215.410156 187.84375 215.410156 187.839844 215.410156 C 187.835938 215.410156 187.828125 215.410156 187.828125 215.410156 C 187.820312 215.410156 187.816406 215.410156 187.808594 215.410156 C 187.808594 215.410156 187.804688 215.410156 187.804688 215.410156 C 187.796875 215.410156 187.789062 215.410156 187.777344 215.410156 C 187.777344 215.410156 187.773438 215.410156 187.769531 215.410156 C 187.765625 215.410156 187.761719 215.410156 187.753906 215.410156 C 187.75 215.410156 187.75 215.410156 187.746094 215.410156 C 187.734375 215.410156 187.726562 215.410156 187.71875 215.410156 " fill-opacity="1" fill-rule="nonzero"/></g></g><g clip-path="url(#clip-67)"><g clip-path="url(#clip-68)"><path fill="rgb(54.899597%, 38.038635%, 34.509277%)" d="M 149.011719 127.492188 C 149.011719 127.492188 154.824219 122.316406 160.433594 123.59375 C 166.039062 124.867188 174.75 124.859375 177.304688 122.015625 C 177.304688 122.015625 158.320312 114.394531 149.011719 127.492188 " fill-opacity="1" fill-rule="nonzero"/></g></g><g clip-path="url(#clip-69)"><g clip-path="url(#clip-70)"><path fill="rgb(54.899597%, 38.038635%, 34.509277%)" d="M 224.757812 127.492188 C 224.757812 127.492188 218.941406 122.316406 213.339844 123.59375 C 207.730469 124.867188 199.019531 124.859375 196.460938 122.015625 C 196.460938 122.015625 215.449219 114.394531 224.757812 127.492188 " fill-opacity="1" fill-rule="nonzero"/></g></g><g clip-path="url(#clip-71)"><g clip-path="url(#clip-72)"><path fill="rgb(69.018555%, 34.509277%, 21.958923%)" d="M 178.648438 167.800781 C 178.648438 167.800781 178.636719 167.703125 178.609375 167.519531 C 178.578125 167.335938 178.542969 167.070312 178.578125 166.699219 C 178.609375 166.335938 178.671875 165.890625 178.855469 165.417969 C 179.015625 164.929688 179.28125 164.414062 179.640625 163.886719 C 180.003906 163.375 180.453125 162.839844 181.007812 162.375 C 181.554688 161.890625 182.191406 161.457031 182.898438 161.09375 C 183.613281 160.746094 184.375 160.410156 185.195312 160.234375 C 186.03125 160.011719 186.824219 159.949219 187.769531 159.917969 C 188.171875 159.949219 188.507812 159.933594 188.964844 160 C 189.410156 160.050781 189.84375 160.121094 190.242188 160.230469 C 191.0625 160.40625 191.828125 160.746094 192.542969 161.089844 C 193.25 161.453125 193.886719 161.886719 194.433594 162.371094 C 194.992188 162.835938 195.445312 163.367188 195.800781 163.886719 C 196.160156 164.414062 196.429688 164.929688 196.589844 165.417969 C 196.773438 165.890625 196.835938 166.339844 196.863281 166.691406 C 196.902344 167.054688 196.867188 167.332031 196.832031 167.519531 C 196.8125 167.703125 196.792969 167.800781 196.792969 167.800781 C 196.792969 167.800781 196.769531 167.707031 196.71875 167.527344 C 196.679688 167.347656 196.582031 167.101562 196.441406 166.796875 C 196.308594 166.5 196.113281 166.15625 195.84375 165.796875 C 195.59375 165.433594 195.238281 165.074219 194.851562 164.703125 C 194.449219 164.34375 193.980469 164 193.460938 163.679688 C 192.945312 163.351562 192.351562 163.097656 191.746094 162.835938 C 191.128906 162.601562 190.46875 162.417969 189.789062 162.296875 C 189.449219 162.21875 189.121094 162.191406 188.796875 162.15625 C 188.484375 162.101562 188.046875 162.117188 187.675781 162.09375 C 187.070312 162.117188 186.304688 162.15625 185.648438 162.296875 C 184.972656 162.417969 184.316406 162.597656 183.691406 162.835938 C 183.09375 163.097656 182.496094 163.347656 181.976562 163.679688 C 181.460938 164 180.992188 164.34375 180.585938 164.703125 C 180.203125 165.074219 179.847656 165.429688 179.59375 165.796875 C 179.328125 166.152344 179.132812 166.503906 179 166.792969 C 178.863281 167.085938 178.761719 167.34375 178.730469 167.527344 C 178.671875 167.707031 178.648438 167.800781 178.648438 167.800781 " fill-opacity="1" fill-rule="nonzero"/></g></g><g clip-path="url(#clip-73)"><g clip-path="url(#clip-74)"><path fill="rgb(67.83905%, 39.608765%, 26.669312%)" d="M 181.820312 190.570312 C 181.820312 190.570312 187.820312 193.433594 193.820312 190.570312 C 193.820312 190.570312 188.621094 199.878906 181.820312 190.570312 " fill-opacity="1" fill-rule="nonzero"/></g></g><g clip-path="url(#clip-75)"><g clip-path="url(#clip-76)"><path fill="rgb(83.918762%, 52.159119%, 35.289001%)" d="M 187.945312 171.179688 C 182.566406 171.179688 178.648438 168.9375 178.648438 168.9375 C 180.214844 163.460938 185.800781 163.0625 187.394531 163.0625 C 187.664062 163.0625 187.820312 163.074219 187.820312 163.074219 C 187.921875 163.070312 188.03125 163.070312 188.132812 163.070312 C 194.535156 163.070312 196.792969 168.9375 196.792969 168.9375 C 193.683594 170.621094 190.632812 171.179688 187.945312 171.179688 " fill-opacity="1" fill-rule="nonzero"/></g></g><g clip-path="url(#clip-77)"><g clip-path="url(#clip-78)"><path fill="rgb(12.939453%, 10.198975%, 10.5896%)" d="M 174.28125 146.425781 C 174.28125 150.84375 172.308594 154.425781 169.867188 154.425781 C 167.425781 154.425781 165.449219 150.84375 165.449219 146.425781 C 165.449219 142.007812 167.425781 138.425781 169.867188 138.425781 C 172.308594 138.425781 174.28125 142.007812 174.28125 146.425781 " fill-opacity="1" fill-rule="nonzero"/></g></g><g clip-path="url(#clip-79)"><g clip-path="url(#clip-80)"><path fill="rgb(12.939453%, 10.198975%, 10.5896%)" d="M 210.195312 146.425781 C 210.195312 150.84375 208.21875 154.425781 205.777344 154.425781 C 203.335938 154.425781 201.359375 150.84375 201.359375 146.425781 C 201.359375 142.007812 203.335938 138.425781 205.777344 138.425781 C 208.21875 138.425781 210.195312 142.007812 210.195312 146.425781 " fill-opacity="1" fill-rule="nonzero"/></g></g><g clip-path="url(#clip-81)"><g clip-path="url(#clip-82)"><path fill="rgb(96.469116%, 98.039246%, 79.219055%)" d="M 163.160156 226 C 163.160156 226 175.824219 242.6875 189.527344 243.980469 C 189.527344 243.980469 162.507812 259.449219 155.964844 254.722656 L 159.269531 231.023438 C 159.269531 231.023438 159.082031 222.367188 163.160156 226 " fill-opacity="1" fill-rule="nonzero"/></g></g><g clip-path="url(#clip-83)"><g clip-path="url(#clip-84)"><path fill="rgb(96.469116%, 98.039246%, 79.219055%)" d="M 215.363281 226 C 215.363281 226 202.699219 242.6875 188.992188 243.980469 C 188.992188 243.980469 216.011719 259.449219 222.554688 254.722656 L 219.253906 231.023438 C 219.253906 231.023438 219.441406 222.367188 215.363281 226 " fill-opacity="1" fill-rule="nonzero"/></g></g><g clip-path="url(#clip-85)"><g clip-path="url(#clip-86)"><path fill="rgb(54.899597%, 38.038635%, 34.509277%)" d="M 251.691406 93.835938 C 251.648438 120.914062 238.660156 145.1875 238.660156 145.1875 C 238.660156 145.1875 240.679688 122.019531 227.953125 115.105469 C 215.230469 108.199219 207.230469 112.71875 207.230469 112.71875 C 177.480469 122.375 158.511719 95.472656 158.511719 95.472656 C 151.125 108.742188 146.578125 110.019531 146.578125 110.019531 C 136.460938 123.472656 136.789062 149.5625 136.789062 149.5625 C 118.097656 51.359375 173.21875 46.355469 210.613281 55.191406 C 210.613281 55.191406 237.707031 60.125 240.253906 45.222656 C 240.253906 45.222656 251.730469 66.570312 251.691406 93.835938 " fill-opacity="1" fill-rule="nonzero"/></g></g><g clip-path="url(#clip-87)"><g clip-path="url(#clip-88)"><path fill="rgb(72.549438%, 53.329468%, 49.01886%)" d="M 136.433594 87.296875 C 156.085938 88.980469 187.847656 89.757812 205.777344 79.910156 C 205.777344 79.910156 167.496094 80.539062 143.308594 72.285156 C 140.496094 76.476562 138.164062 81.4375 136.433594 87.296875 " fill-opacity="1" fill-rule="nonzero"/></g></g><g clip-path="url(#clip-89)"><g clip-path="url(#clip-90)"><path fill="rgb(12.939453%, 10.198975%, 10.5896%)" d="M 222.269531 158.921875 C 222.269531 158.921875 217.714844 161.890625 207.953125 160.808594 C 197.527344 159.644531 195.285156 143.667969 195.285156 143.667969 L 195.285156 139.730469 C 195.285156 139.730469 196.441406 136.722656 200.496094 135.558594 C 204.554688 134.40625 219.375 134.175781 223.542969 135.558594 C 223.542969 135.558594 228.289062 136.253906 228.289062 139.152344 C 228.289062 142.046875 228.871094 155.183594 222.269531 158.921875 Z M 181.851562 144.679688 C 181.851562 144.679688 179.609375 160.660156 169.183594 161.820312 C 159.421875 162.910156 154.867188 159.933594 154.867188 159.933594 C 148.269531 156.195312 148.84375 143.058594 148.84375 140.164062 C 148.84375 137.273438 153.59375 136.574219 153.59375 136.574219 C 157.765625 135.1875 172.589844 135.417969 176.640625 136.574219 C 180.699219 137.734375 181.851562 140.746094 181.851562 140.746094 Z M 236.101562 137.609375 C 235.136719 136.953125 232.363281 136.363281 230.761719 136.0625 C 229.433594 133.949219 225.625 133.386719 225.625 133.386719 C 220.71875 131.75 203.265625 132.023438 198.488281 133.386719 C 194.761719 134.453125 193.121094 136.839844 192.582031 137.839844 C 189.113281 136.433594 185.726562 137.1875 183.882812 137.828125 C 183.007812 136.691406 181.394531 135.1875 178.648438 134.398438 C 173.871094 133.035156 156.417969 132.765625 151.511719 134.398438 C 151.511719 134.398438 149.144531 134.753906 147.496094 135.933594 C 146.203125 136.15625 142.5625 136.832031 141.433594 137.609375 C 140.054688 138.558594 141.414062 142.785156 141.414062 142.785156 L 145.976562 144.199219 C 146.253906 150.199219 147.53125 158.796875 153.011719 161.902344 C 153.011719 161.902344 158.375 165.402344 169.867188 164.121094 C 182.140625 162.757812 184.777344 143.945312 184.777344 143.945312 L 184.777344 143.402344 C 188.28125 141.136719 191.03125 142.617188 192.539062 143.957031 C 193.296875 147.886719 196.722656 161.933594 207.277344 163.109375 C 218.761719 164.386719 224.128906 160.890625 224.128906 160.890625 C 229.261719 157.980469 230.707031 150.242188 231.09375 144.339844 L 236.121094 142.785156 C 236.121094 142.785156 237.480469 138.558594 236.101562 137.609375 " fill-opacity="1" fill-rule="nonzero"/></g></g><g clip-path="url(#clip-91)"><g clip-path="url(#clip-92)"><path fill="rgb(45.098877%, 26.269531%, 25.099182%)" d="M 210.195312 106.640625 C 188.433594 112.351562 158.511719 95.472656 158.511719 95.472656 C 158.511719 95.472656 177.480469 122.375 207.230469 112.71875 C 207.230469 112.71875 215.230469 108.199219 227.953125 115.105469 C 240.679688 122.019531 238.660156 145.1875 238.660156 145.1875 C 250.457031 121.097656 231.953125 100.925781 210.195312 106.640625 " fill-opacity="1" fill-rule="nonzero"/></g></g><g clip-path="url(#clip-93)"><g clip-path="url(#clip-94)"><path fill="rgb(45.098877%, 26.269531%, 25.099182%)" d="M 140.816406 108.195312 C 137.679688 107.296875 135.300781 104.945312 133.574219 102.507812 C 132.332031 115.097656 133.179688 130.585938 136.789062 149.5625 C 136.789062 149.5625 136.460938 123.472656 146.578125 110.019531 C 146.578125 110.019531 151.125 108.742188 158.511719 95.472656 C 158.511719 95.472656 148.34375 110.371094 140.816406 108.195312 " fill-opacity="1" fill-rule="nonzero"/></g></g></svg>